<svg xmlns="http://www.w3.org/2000/svg" viewBox="0 0 32.82 32.82"><defs><style>.cls-1{fill:#ed4d34;}.cls-2{fill:#fff;}</style></defs><g id="Layer_2" data-name="Layer 2"><g id="Layer_1-2" data-name="Layer 1"><circle class="cls-1" cx="16.41" cy="16.41" r="16.41"/><path class="cls-2" d="M16.71,7.88h6a.32.32,0,0,1,.35.36v9.64a.32.32,0,0,1-.2.33.31.31,0,0,1-.35-.09.35.35,0,0,1-.07-.25V8.63c0-.11,0-.13-.13-.13H11.12c-.1,0-.14,0-.13.13s0,.33,0,.5,0,.08.08.08a1,1,0,0,1,.17,0h10c.3,0,.4.1.4.4v7.75c0,.26-.16.42-.37.38a.31.31,0,0,1-.25-.28.66.66,0,0,1,0-.14V10c0-.1,0-.13-.12-.13H9.68c-.09,0-.12,0-.12.12v1.66a.31.31,0,0,1-.43.31.29.29,0,0,1-.2-.29V9.52a.3.3,0,0,1,.33-.31c.33,0,.67,0,1,0,.08,0,.11,0,.1-.1V8.24a.32.32,0,0,1,.36-.36Z"/><path class="cls-2" d="M23.89,21.31A3.33,3.33,0,0,1,21,24.63c-.26,0-.52,0-.78.05a1.54,1.54,0,0,0-.78.35s0,.07,0,.12a.49.49,0,0,1-.09.58l-.57.57a.48.48,0,0,1-.61.08s-.06,0-.1,0l-.22.21a.57.57,0,0,1-.51.17.15.15,0,0,0-.12,0,1,1,0,0,1-.9.29.81.81,0,0,1-.39-.2l-1-1a.88.88,0,0,1,0-1.16.51.51,0,0,0,.16-.39.53.53,0,0,1,.17-.38l.11-.1c.1-.09.16-.16.08-.32a.41.41,0,0,1,.1-.48l.61-.61a.47.47,0,0,1,.55-.07c.07,0,.1,0,.15,0a1.55,1.55,0,0,0,.35-1,3.32,3.32,0,0,1,6.61-.57A2.82,2.82,0,0,1,23.89,21.31ZM20.49,24a2.23,2.23,0,0,0,.45,0,2.68,2.68,0,0,0,2.3-3,2.56,2.56,0,0,0-1.62-2.15,2.59,2.59,0,0,0-2.71.35,2.56,2.56,0,0,0-1,2.17,2.12,2.12,0,0,1-.56,1.5c0,.05,0,.07,0,.1l.53.52c0,.05.07.05.11,0l.85-.84a.15.15,0,0,0,0-.14c-.1-.42-.2-.84-.29-1.26a.3.3,0,0,1,.24-.37.32.32,0,0,1,.38.28l.27,1.18a.14.14,0,0,0,.11.11l1.2.27a.4.4,0,0,1,.17.09.32.32,0,0,1,.07.37.31.31,0,0,1-.38.16l-1.22-.29a.12.12,0,0,0-.14,0l-.86.85s-.05.06,0,.11l.53.53s.06,0,.11,0A2.09,2.09,0,0,1,20.49,24Zm-4-1a.34.34,0,0,1-.06.06l-.28.28c-.05,0-.05.07,0,.11l.38.38,1.79,1.8c.06.06.09.06.14,0a3.31,3.31,0,0,1,.27-.26c0-.05,0-.07,0-.12l-2.19-2.19S16.55,23.1,16.53,23.07ZM16,24.23l-.05,0a1.06,1.06,0,0,1-.15.15c-.05.05-.05.07,0,.12L17.22,26c.07.06.13.19.21.18s.13-.13.2-.19,0-.06,0-.09l-1.58-1.59Zm-.49.9a.28.28,0,0,0,0,.47l.82.82a.25.25,0,0,0,.35,0c.07,0,.1-.07,0-.14-.23-.21-.44-.43-.66-.65Z"/><path class="cls-2" d="M8.93,20.88V16.22a.32.32,0,0,1,.42-.34.31.31,0,0,1,.21.27v9c0,.1,0,.12.11.12h4.49a.31.31,0,0,1,.35.33.3.3,0,0,1-.29.3.86.86,0,0,1-.16,0H9.31c-.26,0-.38-.11-.38-.37Z"/><path class="cls-2" d="M15.28,10.82h2.8a.31.31,0,0,1,.32.41.28.28,0,0,1-.27.21H12.41a.31.31,0,0,1,0-.62h2.84Z"/><path class="cls-2" d="M12.06,22.26H10.72a.32.32,0,0,1-.31-.19.32.32,0,0,1,.3-.44h2.7a.31.31,0,0,1,.33.32.32.32,0,0,1-.33.31Z"/><path class="cls-2" d="M14.16,18h.58a.31.31,0,1,1,0,.62H13.58a.31.31,0,1,1,0-.62Z"/><path class="cls-2" d="M16.8,15.05h-.48a.33.33,0,0,1-.34-.32.3.3,0,0,1,.33-.31h1a.31.31,0,0,1,.33.31.32.32,0,0,1-.33.32Z"/><path class="cls-2" d="M13.75,16.22h.49a.3.3,0,0,1,.33.31.31.31,0,0,1-.33.31c-.33,0-.66,0-1,0a.31.31,0,1,1,0-.62Z"/><path class="cls-2" d="M13.75,15.05h-.49a.33.33,0,0,1-.34-.32.31.31,0,0,1,.33-.31h1a.3.3,0,0,1,.32.32.32.32,0,0,1-.33.31Z"/><path class="cls-2" d="M16.81,13.25h-.48c-.21,0-.35-.13-.35-.31a.32.32,0,0,1,.35-.32h1a.32.32,0,0,1,.35.32c0,.18-.14.3-.35.31Z"/><path class="cls-2" d="M16.81,16.22h.48a.32.32,0,0,1,.34.32.31.31,0,0,1-.34.3c-.32,0-.65,0-1,0a.31.31,0,0,1-.34-.31.3.3,0,0,1,.33-.31Z"/><path class="cls-2" d="M13.75,12.61h.48a.32.32,0,1,1,0,.63h-1a.32.32,0,1,1,0-.64h.49Z"/><path class="cls-2" d="M8.93,13.91v-.44a.32.32,0,1,1,.63,0v.87a.31.31,0,0,1-.32.33.31.31,0,0,1-.31-.32Z"/><path class="cls-2" d="M19.59,13.25h-.24a.32.32,0,0,1-.31-.33.31.31,0,0,1,.32-.3h.48a.32.32,0,0,1,.33.31.32.32,0,0,1-.33.32Z"/><path class="cls-2" d="M11,15.05H10.7a.31.31,0,0,1-.31-.31.3.3,0,0,1,.3-.32h.52a.29.29,0,0,1,.3.32.31.31,0,0,1-.32.31Z"/><path class="cls-2" d="M19.6,15.05h-.25a.31.31,0,0,1-.31-.29.3.3,0,0,1,.28-.33h.57a.31.31,0,0,1,.28.32.33.33,0,0,1-.31.31Z"/><path class="cls-2" d="M11,13.25h-.24a.32.32,0,0,1-.32-.32.3.3,0,0,1,.32-.31h.48a.3.3,0,0,1,.32.31.31.31,0,0,1-.31.32Z"/><path class="cls-2" d="M11,16.85H10.7a.3.3,0,0,1-.31-.3.29.29,0,0,1,.3-.32h.52a.3.3,0,0,1,.3.32.3.3,0,0,1-.31.3Z"/><path class="cls-2" d="M19.6,16.85h-.25a.31.31,0,0,1-.31-.3.3.3,0,0,1,.3-.32h.53a.31.31,0,0,1,0,.62Z"/><path class="cls-2" d="M17.36,18.64h-.24a.31.31,0,0,1-.32-.31.31.31,0,0,1,.32-.31h.5a.3.3,0,0,1,.31.31.31.31,0,0,1-.31.31Z"/><path class="cls-2" d="M11,18h.26a.3.3,0,0,1,.3.3.3.3,0,0,1-.28.32h-.56a.31.31,0,0,1,0-.62Z"/></g></g></svg>