<svg xmlns="http://www.w3.org/2000/svg" viewBox="0 0 32.82 32.82"><defs><style>.cls-1{fill:#ed4d34;}.cls-2{fill:#fff;}</style></defs><g id="Layer_2" data-name="Layer 2"><g id="Layer_1-2" data-name="Layer 1"><circle class="cls-1" cx="16.41" cy="16.41" r="16.41"/><path class="cls-2" d="M14.91,24.26H9.62a1.8,1.8,0,0,1-1.37-.64,1.9,1.9,0,0,1-.48-1.35V18.74a.45.45,0,0,0-.12-.31,1.45,1.45,0,0,1-.39-1c0-1.6,0-3.19,0-4.78a1.88,1.88,0,0,1,.93-1.6,2,2,0,0,1,1.14-.31h4c.15,0,.16,0,.16-.16s0-.56-.05-.85A1.16,1.16,0,0,1,14.3,8.6a2,2,0,0,1,.42,0H18.2a1.18,1.18,0,0,1,1.12.76,1,1,0,0,1,.05.41c0,.3,0,.6,0,.9,0,.12.06.12.15.12h2.68c.47,0,.95,0,1.42,0a1.93,1.93,0,0,1,1.79,1.14,2,2,0,0,1,.2.91c0,1.53,0,3.06,0,4.59a1.5,1.5,0,0,1-.39,1,.45.45,0,0,0-.12.33v3.61a1.83,1.83,0,0,1-.77,1.53,1.9,1.9,0,0,1-1.14.38H14.91Zm6-6c1,0,2,0,3,0a1,1,0,0,0,1-1c0-1.53,0-3.06,0-4.59a1.32,1.32,0,0,0-.06-.39,1.26,1.26,0,0,0-1.22-.92c-.66,0-1.32,0-2,0-1.21,0-2.42,0-3.63,0-2.47,0-5,0-7.43,0-.44,0-.89,0-1.33,0a1.26,1.26,0,0,0-.6.14,1.24,1.24,0,0,0-.71,1.14c0,.6,0,1.2,0,1.8,0,.94,0,1.87,0,2.81a1,1,0,0,0,1,1c1.77,0,3.54,0,5.31,0h.85c.09,0,.13,0,.12-.12a.81.81,0,0,1,.78-.9c.31,0,.62,0,.92,0a.82.82,0,0,1,.79.91c0,.09,0,.11.1.11H20.9Zm3.48,2.42V19.14c0-.19,0-.2-.19-.16a1.9,1.9,0,0,1-.41,0h-6c-.19,0-.19,0-.21.2a4.83,4.83,0,0,1-.11.84.84.84,0,0,1-.75.57h-.56a.81.81,0,0,1-.74-.57,3.85,3.85,0,0,1-.11-.83c0-.21,0-.21-.23-.21H9.17a2.46,2.46,0,0,1-.54,0c-.18,0-.18,0-.18.15v3.12a1.23,1.23,0,0,0,0,.33,1.19,1.19,0,0,0,.71.9,1.27,1.27,0,0,0,.56.1H23.1a1.22,1.22,0,0,0,1.28-1.3Zm-8-10h2.07c.1,0,.14,0,.16-.13.05-.3,0-.61.06-.91a.36.36,0,0,0-.06-.23.5.5,0,0,0-.53-.23c-1.17,0-2.34,0-3.51,0a.44.44,0,0,0-.45.5c0,.27,0,.55.06.83s.06.16.18.16Zm0,7.23c-.13,0-.27,0-.4,0s-.16,0-.16.17v.13l.09.81c0,.23,0,.46.08.69a.18.18,0,0,0,.2.17h.38a.18.18,0,0,0,.19-.14,1.17,1.17,0,0,0,.05-.2c0-.25,0-.51.07-.76s.05-.45.07-.68,0-.19-.19-.19A2.41,2.41,0,0,0,16.41,18Z"/></g></g></svg>