<svg xmlns="http://www.w3.org/2000/svg" viewBox="0 0 32.82 32.82"><defs><style>.cls-1{fill:#ed4d34;}.cls-2{fill:#fff;}</style></defs><g id="Layer_2" data-name="Layer 2"><g id="Layer_1-2" data-name="Layer 1"><circle class="cls-1" cx="16.41" cy="16.41" r="16.41"/><path class="cls-2" d="M10.69,20.23a4.71,4.71,0,0,0-.38.82.14.14,0,0,0,0,.11.36.36,0,0,0-.07.17v0a.2.2,0,0,0,0,.13.58.58,0,0,0-.09.25,3.07,3.07,0,0,0-.14.52.7.7,0,0,0,0,.25,1.23,1.23,0,0,0-.07.32c-.07.24-.06.49-.11.73l0,.47a1.22,1.22,0,0,0,0,.33v.15l0,.08,0,.11-.17.14a.42.42,0,0,1-.36-.07l0,0A.52.52,0,0,1,9,24.36V24a2.56,2.56,0,0,0,0-.39v0a.1.1,0,0,0,0-.09.26.26,0,0,0,0-.15,2.44,2.44,0,0,0,.07-.46l.14-.72c.06-.13,0-.27.1-.41a1.42,1.42,0,0,0,.11-.35.34.34,0,0,0,.05-.17A.44.44,0,0,0,9.54,21l.15-.39.36-.74.42-.74a.94.94,0,0,0,.12-.18l.15-.21.55-.7.06-.07.31-.33,0,0,.36-.36,0,0a2.28,2.28,0,0,0,.33-.29s.08,0,0-.09h0c-.21-.23-.38-.48-.57-.72a1.35,1.35,0,0,0-.16-.29.16.16,0,0,0,0-.1l-.17-.36-.26-.75a2,2,0,0,0-.08-.33l-.06-.4,0-.39v-.36a1.45,1.45,0,0,0,0-.36,2.32,2.32,0,0,0,0-.38.28.28,0,0,0,0-.2h0s0-.11,0-.15l.25-.78a.08.08,0,0,0,0-.08.31.31,0,0,0,0-.1l0-.07c.15-.28.3-.55.47-.81a.07.07,0,0,0,0-.06l.29-.36a.52.52,0,0,0,.1-.11l.23-.24a.34.34,0,0,0,.12-.12l.31-.26L13.18,9l.41-.28s0,0,.05,0l.29-.16c.13-.06.26-.11.38-.18a.29.29,0,0,0,.13-.05.47.47,0,0,0,.15-.06l.46-.15a1.55,1.55,0,0,0,.36-.08C15.68,8,16,8,16.22,8s.59,0,.88,0h0a.93.93,0,0,0,.23,0,1.5,1.5,0,0,0,.29.06l.48.14.62.26.38.2s0,0,0,0l.33.22a.75.75,0,0,0,.18.13l.17.14c.21.19.42.4.62.61a.93.93,0,0,0,.13.15.19.19,0,0,0,.08.1l.31.46a.1.1,0,0,0,0,.07l.19.34.12.26,0,.13.1.25.14.49.12.72,0,.38v.39l0,.35-.13.74L21.5,15c-.09.26-.21.52-.32.77s-.32.52-.49.77l0,0-.27.31c0,.05,0,.07,0,.11l.38.33.21.21.12.12.24.23.13.16.24.28.09.1c.25.34.48.7.72,1.05l.43.83.33.79.09.3a7,7,0,0,1,.21.75l.07.36,0,.23a.12.12,0,0,0,0,.08v.05l.07.46v.18a.08.08,0,0,0,0,.08v0a1.7,1.7,0,0,0,0,.39v.36a.58.58,0,0,1-.1.38l-.16.11a.49.49,0,0,1-.32-.06l-.08-.09a.67.67,0,0,1-.07-.34.57.57,0,0,0,0-.26s0,0,0,0V24a3.55,3.55,0,0,0,0-.46,1,1,0,0,0,0-.3,2.6,2.6,0,0,0-.05-.39,4.64,4.64,0,0,0-.16-.74,2.24,2.24,0,0,0-.1-.37,4.89,4.89,0,0,0-.27-.76,2.28,2.28,0,0,0-.15-.36,2,2,0,0,0-.18-.36l-.05-.09a4.18,4.18,0,0,0-.4-.68,2,2,0,0,0-.27-.39s0-.05-.05-.07a1.58,1.58,0,0,0-.22-.29.9.9,0,0,0-.16-.18.61.61,0,0,0-.15-.17,1,1,0,0,0-.22-.23.77.77,0,0,0-.18-.18,1.26,1.26,0,0,0-.2-.2,1.88,1.88,0,0,0-.26-.22.1.1,0,0,0-.05,0q-.11-.16-.24,0a1.39,1.39,0,0,1-.19.15s0,0,0,0l-.35.23A.39.39,0,0,0,19,18a1.59,1.59,0,0,0-.29.15l-.67.26-.36.09-.46.09a1.86,1.86,0,0,0-.34.05,9.73,9.73,0,0,1-1.08,0l-.51-.08a.6.6,0,0,0-.23-.06l-.38-.12-.7-.29L13.83,18l-.29-.18-.31-.21-.05,0v0c-.17-.14-.17-.14-.34,0a9.24,9.24,0,0,0-1.42,1.51.22.22,0,0,0-.05.08.16.16,0,0,0-.06.08,1.07,1.07,0,0,0-.19.28.15.15,0,0,0-.06.1.1.1,0,0,0-.05.08s0,0,0,0a.84.84,0,0,0-.15.26A.65.65,0,0,0,10.69,20.23Zm9.52-9.56a.16.16,0,0,0-.05-.08l0,0a1.53,1.53,0,0,0-.26-.31.13.13,0,0,0-.06-.07,2.65,2.65,0,0,0-.29-.29h0a2.42,2.42,0,0,0-.31-.25,3.12,3.12,0,0,0-.76-.47,3.17,3.17,0,0,0-.79-.31,1.24,1.24,0,0,0-.39-.09,1.42,1.42,0,0,0-.36,0,1.2,1.2,0,0,0-.38,0,3.39,3.39,0,0,0-.64,0h0a2.56,2.56,0,0,0-.54.1.89.89,0,0,0-.28.07,3.22,3.22,0,0,0-.79.33,4.49,4.49,0,0,0-1.8,1.67.14.14,0,0,0-.05.08,1.59,1.59,0,0,0-.18.34,1.84,1.84,0,0,0-.17.38,2,2,0,0,0-.19.72,1.14,1.14,0,0,0-.07.41,1.46,1.46,0,0,0,0,.36,1.45,1.45,0,0,0,0,.36.9.9,0,0,0,0,.23,2.34,2.34,0,0,0,.09.59,2.65,2.65,0,0,0,.24.72,2.92,2.92,0,0,0,.38.72,1,1,0,0,0,.16.24,4.18,4.18,0,0,0,1.23,1.14.63.63,0,0,0,.2.13.54.54,0,0,0,.18.1,1.73,1.73,0,0,0,.39.18.44.44,0,0,0,.16.06,4,4,0,0,0,1,.24l.17,0a2.26,2.26,0,0,0,.52,0h.13a.29.29,0,0,0,.13,0h.12a1.63,1.63,0,0,0,.44-.08,2.23,2.23,0,0,0,.67-.19,1.09,1.09,0,0,0,.35-.15,1.09,1.09,0,0,0,.34-.17.29.29,0,0,0,.12-.07,3.72,3.72,0,0,0,.68-.5,1,1,0,0,0,.2-.2.4.4,0,0,0,.13-.13,1.38,1.38,0,0,0,.24-.3.18.18,0,0,0,.09-.12.33.33,0,0,0,.1-.14s0,0,0,0l0-.05a.89.89,0,0,0,.14-.25,1.51,1.51,0,0,0,.15-.28,3.13,3.13,0,0,0,.19-.51.8.8,0,0,0,.09-.43.6.6,0,0,0,.08-.35.87.87,0,0,0,0-.39,1.45,1.45,0,0,0,0-.36,1.58,1.58,0,0,0,0-.38,1.51,1.51,0,0,0-.06-.37.83.83,0,0,0-.1-.38,1,1,0,0,0-.14-.43.08.08,0,0,0,0-.08,4.09,4.09,0,0,0-.23-.47s0,0,0,0a1.08,1.08,0,0,0-.18-.29h0s0-.05-.05-.08Z"/></g></g></svg>