<svg xmlns="http://www.w3.org/2000/svg" viewBox="0 0 32.82 32.82"><defs><style>.cls-1{fill:#ed4d34;}.cls-2{fill:#fff;}</style></defs><g id="Layer_2" data-name="Layer 2"><g id="Layer_1-2" data-name="Layer 1"><circle class="cls-1" cx="16.41" cy="16.41" r="16.41"/><path class="cls-2" d="M8,16.55v1.23a.42.42,0,0,0,.05.2l.69,1.19a.55.55,0,0,1,.07.28v1.4c0,.16,0,.18-.17.18H6.83c-.13,0-.15,0-.15-.14,0-.51,0-1,0-1.52A.73.73,0,0,1,6.84,19l.59-1a.34.34,0,0,0,0-.2c0-.88,0-1.77,0-2.66a.18.18,0,0,0-.14-.19,1.47,1.47,0,0,1-.49-.3A.82.82,0,0,1,7,13.36a2,2,0,0,1,.7-.31l1-.3.9-.28,1-.32,1-.3,1-.3,1.18-.36,1.36-.41a4.83,4.83,0,0,1,2.28-.07c.3.06.59.17.89.26l1.31.4,1.2.37c.34.1.67.21,1,.3s.47.15.71.21c.41.11.82.25,1.23.37s.77.23,1.15.36l.52.16a1.18,1.18,0,0,1,.68.52.81.81,0,0,1-.27,1.06,2,2,0,0,1-.71.31l-1.06.33c-.43.13-.86.27-1.29.39a.17.17,0,0,0-.14.19v4.45a.35.35,0,0,1-.08.22,3.51,3.51,0,0,1-1.39.88,7.08,7.08,0,0,1-1.36.4c-.4.08-.8.15-1.2.2a17.63,17.63,0,0,1-2.9.11,13.12,13.12,0,0,1-1.53-.11L13.38,22a8.84,8.84,0,0,1-1.13-.27,5.61,5.61,0,0,1-.92-.34,3.13,3.13,0,0,1-1.11-.79.22.22,0,0,1-.05-.14c0-1.5,0-3,0-4.51,0-.1,0-.14-.14-.17-.49-.14-1-.3-1.46-.45-.13,0-.28-.07-.41-.12s-.12,0-.12.09C8.05,15.7,8,16.12,8,16.55Zm8.39.35c.11,0,.24,0,.36,0a2.29,2.29,0,0,0,.73-.13l1.05-.31,1.19-.36.63-.2.91-.27,1.21-.37c.48-.15,1-.28,1.45-.44L25,14.48a1.26,1.26,0,0,0,.53-.23.28.28,0,0,0-.05-.46,1.63,1.63,0,0,0-.43-.18l-1.32-.4-1.88-.57-1.34-.41L19.68,12l-1.3-.39a9,9,0,0,0-1.53-.39,4.63,4.63,0,0,0-1.39.07,8.36,8.36,0,0,0-.81.25L13,12l-1.53.46-.83.26-1.09.32-1.14.35-.81.25a.8.8,0,0,0-.34.18.25.25,0,0,0,0,.38.88.88,0,0,0,.4.22l1.6.48,2.16.66,1.81.54,1.79.55A4.43,4.43,0,0,0,16.43,16.9Zm5.65,1.27V16.11c0-.07,0-.13-.1-.1l-1.1.34c-.4.11-.79.25-1.18.37l-1.3.4a16.63,16.63,0,0,1-1.61.47,2.58,2.58,0,0,1-.68,0,5.87,5.87,0,0,1-1.09-.3l-1.29-.4-1.29-.4L10.83,16c-.07,0-.1,0-.1.07a1.77,1.77,0,0,1,0,.23v3.86a.27.27,0,0,0,.07.21,2.9,2.9,0,0,0,.55.36,7.71,7.71,0,0,0,2.1.68c.31.06.64.1,1,.13q.71.06,1.41.09c.57,0,1.14,0,1.71,0l.45,0,1-.11q.35,0,.69-.12A9.2,9.2,0,0,0,20.77,21,4.47,4.47,0,0,0,22,20.43a.33.33,0,0,0,.13-.26C22.08,19.5,22.08,18.83,22.08,18.17ZM7.24,19.86c0,.2,0,.34,0,.48s0,.13.13.13h.78c.08,0,.12,0,.13-.12a5.21,5.21,0,0,0,0-.79.51.51,0,0,0-.07-.26l-.4-.68c0-.08-.06-.06-.09,0s-.13.24-.21.36A1.12,1.12,0,0,0,7.24,19.86Z"/></g></g></svg>