<svg xmlns="http://www.w3.org/2000/svg" viewBox="0 0 32.82 32.82"><defs><style>.cls-1{fill:#ed4d34;}.cls-2{fill:#fff;}</style></defs><g id="Layer_2" data-name="Layer 2"><g id="Layer_1-2" data-name="Layer 1"><circle class="cls-1" cx="16.41" cy="16.41" r="16.41"/><path class="cls-2" d="M15.91,11.39c0-.05,0-.07-.05-.1-.28-.4-.55-.8-.84-1.2C15,10,15,10,15,10L16.29,8.7c.05-.06.09,0,.14,0,.4.28.8.56,1.19.85a.14.14,0,0,0,.17,0,3.38,3.38,0,0,1,.44-.18.13.13,0,0,0,.1-.11c.07-.48.15-1,.23-1.44,0-.08,0-.12.13-.12h1.74c.08,0,.11,0,.12.11.07.41.17.81.2,1.22a.45.45,0,0,0,.39.44.26.26,0,0,1,.12,0c.12.1.22.05.33,0,.37-.28.75-.54,1.12-.81.05,0,.08,0,.13,0L24.11,10s0,.07,0,.12l-.86,1.22a.12.12,0,0,0,0,.16,4.22,4.22,0,0,1,.18.45.12.12,0,0,0,.1.09c.44.06.87.14,1.31.21l.15,0c.1,0,.12,0,.12.14v1.73c0,.09,0,.11-.1.12l-1.45.25a.14.14,0,0,0-.13.11,3.25,3.25,0,0,1-.18.43.13.13,0,0,0,0,.16l.87,1.2c.05.06.05.09,0,.15l-1.24,1.24c-.06.06-.1.06-.16,0l-1.2-.84a.14.14,0,0,0-.16,0,2,2,0,0,1-.46.19.12.12,0,0,0-.09.1c-.08.5-.17,1-.25,1.48,0,.07,0,.09-.11.09H18.67c-.09,0-.1,0-.11-.1l-.24-1.46c0-.06,0-.09-.09-.1a3.71,3.71,0,0,1-.46-.19.12.12,0,0,0-.15,0l-1.2.84c-.06,0-.1.06-.15,0-.42-.42-.83-.84-1.25-1.25a.1.1,0,0,1,0-.15c.28-.39.56-.79.85-1.18a.14.14,0,0,0,0-.18,2.39,2.39,0,0,1-.18-.44.14.14,0,0,0-.13-.1l-1.45-.25c-.07,0-.08,0-.08-.1V12.35c0-.07,0-.09.09-.1L15.61,12a.07.07,0,0,0,.07-.05,3.49,3.49,0,0,1,.22-.53Zm6.78,5.41s0,0,.07,0,.2-.21.32-.31.05-.1,0-.15l-.74-1a.14.14,0,0,1,0-.17,3.49,3.49,0,0,0,.5-1.21c0-.07.05-.09.12-.1l1.27-.22c.07,0,.09,0,.09-.11a3.08,3.08,0,0,1,0-.43c0-.08,0-.1-.1-.12L23,12.71c-.07,0-.11,0-.12-.1a3.49,3.49,0,0,0-.5-1.21.12.12,0,0,1,0-.16c.25-.34.49-.69.74-1a.12.12,0,0,0,0-.18,3.83,3.83,0,0,1-.29-.28c-.05-.07-.09-.06-.15,0l-1,.75a.11.11,0,0,1-.14,0A3.45,3.45,0,0,0,20.21,10a.14.14,0,0,1-.11-.12C20,9.43,20,9,19.88,8.57c0-.06,0-.06-.08-.06h-.34c-.2,0-.21,0-.24.2-.07.38-.13.77-.19,1.16a.1.1,0,0,1-.09.1,3.47,3.47,0,0,0-1.23.5.11.11,0,0,1-.16,0L16.5,9.72c-.05,0-.08,0-.12,0l-.3.3c-.07.05-.07.1,0,.17.25.34.49.69.73,1a.1.1,0,0,1,0,.13,3.4,3.4,0,0,0-.51,1.21.14.14,0,0,1-.14.13l-1.24.21c-.07,0-.09,0-.08.1v.44c0,.07,0,.1.09.11l1.24.22c.07,0,.11,0,.12.1a3.27,3.27,0,0,0,.52,1.23.12.12,0,0,1,0,.15l-.74,1c0,.06,0,.1,0,.15s.21.2.31.31.07,0,.12,0L17.55,16a.11.11,0,0,1,.15,0,3.38,3.38,0,0,0,1.21.5.14.14,0,0,1,.12.12c.06.42.13.84.2,1.27,0,.05,0,.08.1.08h.47c.05,0,.07,0,.08-.07s0-.23.06-.34c.06-.31.11-.62.16-.93a.13.13,0,0,1,.12-.13A3.51,3.51,0,0,0,21.43,16c.05,0,.08,0,.14,0l1,.73Z"/><path class="cls-2" d="M14,23.93V25c0,.08,0,.1-.1.1h-.59c-.08,0-.1,0-.1-.1,0-.46,0-.92,0-1.38,0-.09,0-.11-.11-.11H11.93a2.13,2.13,0,0,1-2.07-1.77c-.1-.55-.15-1.1-.23-1.65s-.11-.8-.16-1.19a.12.12,0,0,0-.09-.1l-1.05-.53a1,1,0,0,1-.45-1.5l1.53-2.65a1.08,1.08,0,0,0,.08-.44,8,8,0,0,1,1.32-3.62,5.41,5.41,0,0,1,2.75-2,8.2,8.2,0,0,1,1.21-.29.39.39,0,0,1,.45.33.38.38,0,0,1-.3.45,9.52,9.52,0,0,0-1,.23,4.64,4.64,0,0,0-3.07,2.83,8.61,8.61,0,0,0-.52,1.93l-.09.69a.5.5,0,0,1-.05.13L8.57,17.15s0,0,0,.05a.23.23,0,0,0,.1.36l1,.52.42.21a.1.1,0,0,1,.07.1l.27,1.95c.06.43.11.85.18,1.28a1.35,1.35,0,0,0,1.08,1.09,1,1,0,0,0,.24,0h2c.08,0,.1,0,.1.1Z"/><path class="cls-2" d="M21.15,23.7c0,.44,0,.88,0,1.32,0,.07,0,.09-.09.09h-.62c-.06,0-.09,0-.09-.09,0-.93,0-1.86,0-2.78a6.35,6.35,0,0,1,1-3.12c.07-.1.13-.2.2-.29a.39.39,0,0,1,.56-.13.38.38,0,0,1,.09.56,7.05,7.05,0,0,0-.82,1.62,5.57,5.57,0,0,0-.28,1.71V23.7Z"/><path class="cls-2" d="M21.54,13.25a2,2,0,1,1-2-2A2,2,0,0,1,21.54,13.25Zm-.79,0a1.19,1.19,0,1,0-1.19,1.18A1.17,1.17,0,0,0,20.75,13.25Z"/></g></g></svg>