<svg xmlns="http://www.w3.org/2000/svg" viewBox="0 0 31.78 35.72"><defs><style>.cls-1{fill:#a179dc;}.cls-2{fill:#280068;}.cls-3{fill:#390091;}.cls-4{fill:#fff;}</style></defs><g id="Layer_2" data-name="Layer 2"><g id="Layer_1-2" data-name="Layer 1"><path class="cls-1" d="M31.78,10.5a3.11,3.11,0,0,0-.39-1.58,3,3,0,0,0-1.15-1.13L17.55.48a3.13,3.13,0,0,0-3.38,0c-1.69,1-10.12,5.83-12.63,7.28A3,3,0,0,0,0,10.5V25.22a3.16,3.16,0,0,0,.37,1.56,3.08,3.08,0,0,0,1.17,1.15c2.51,1.45,10.94,6.28,12.63,7.28a3.13,3.13,0,0,0,3.38,0l12.69-7.31a3,3,0,0,0,1.17-1.15,3.16,3.16,0,0,0,.37-1.56V10.5"/><path class="cls-2" d="M15.94,17.81l-15.57,9a3.08,3.08,0,0,0,1.17,1.15c2.51,1.45,10.94,6.28,12.63,7.28a3.13,3.13,0,0,0,3.38,0l12.69-7.31a3,3,0,0,0,1.17-1.15l-15.47-9"/><path class="cls-3" d="M31.78,10.5a3.11,3.11,0,0,0-.39-1.58L15.94,17.81l15.47,9a3.16,3.16,0,0,0,.37-1.56V10.5"/><path class="cls-4" d="M25.11,14.46v1.68h1.67V14.46h.84v1.68h1.67V17H27.62v1.68h1.67v.84H27.62v1.67h-.84V19.49H25.11v1.67h-.84V19.49H22.59v-.84h1.68V17H22.59v-.83h1.68V14.46ZM26.78,17H25.11v1.68h1.67Z"/><path class="cls-4" d="M16,6.05A11.8,11.8,0,0,1,26.2,12l0,0-5.14,3A5.87,5.87,0,0,0,16,12H16a5.88,5.88,0,0,0-5.88,5.88,5.79,5.79,0,0,0,.78,2.92,5.88,5.88,0,0,0,10.23,0l0,.05,5.13,3a11.78,11.78,0,0,1-10.1,5.91H16A11.81,11.81,0,0,1,16,6.05Z"/></g></g></svg>