<svg xmlns="http://www.w3.org/2000/svg" xmlns:xlink="http://www.w3.org/1999/xlink" viewBox="0 0 30.65 37.13"><defs><style>.cls-1{fill:url(#linear-gradient);}.cls-2{fill:url(#linear-gradient-2);}.cls-3{isolation:isolate;opacity:0.44;fill:url(#radial-gradient);}</style><linearGradient id="linear-gradient" x1="298.2" y1="-2328.1" x2="328.26" y2="-2353.96" gradientTransform="matrix(0.56, 0, 0, -0.57, -168.5, -1321.41)" gradientUnits="userSpaceOnUse"><stop offset="0" stop-color="#5a9fd4"/><stop offset="1" stop-color="#306998"/></linearGradient><linearGradient id="linear-gradient-2" x1="339.88" y1="-2369.61" x2="329.14" y2="-2354.42" gradientTransform="matrix(0.56, 0, 0, -0.57, -168.5, -1321.41)" gradientUnits="userSpaceOnUse"><stop offset="0" stop-color="#ffd43b"/><stop offset="1" stop-color="#ffe873"/></linearGradient><radialGradient id="radial-gradient" cx="-6431.77" cy="-1008.85" r="32.21" gradientTransform="matrix(0, -0.06, -0.26, 0, -249.06, -348.36)" gradientUnits="userSpaceOnUse"><stop offset="0" stop-color="#b8b8b8" stop-opacity="0.5"/><stop offset="1" stop-color="#7f7f7f" stop-opacity="0"/></radialGradient></defs><g id="Layer_2" data-name="Layer 2"><g id="Layer_1-2" data-name="Layer 1"><path id="path1948" class="cls-1" d="M15.14,0a21.32,21.32,0,0,0-3.53.3C8.48.85,7.91,2,7.91,4.14V7H15.3V7.9H5.14A4.62,4.62,0,0,0,.52,11.65a13.78,13.78,0,0,0,0,7.51c.53,2.19,1.78,3.75,3.93,3.75H7V19.53a4.7,4.7,0,0,1,4.62-4.59H19a3.72,3.72,0,0,0,3.7-3.76v-7A4.13,4.13,0,0,0,19,.3,22.78,22.78,0,0,0,15.14,0Zm-4,2.27A1.41,1.41,0,1,1,9.76,3.68,1.4,1.4,0,0,1,11.14,2.27Z"/><path id="path1950" class="cls-2" d="M23.61,7.9v3.28A4.74,4.74,0,0,1,19,15.87H11.61a3.78,3.78,0,0,0-3.7,3.76v7c0,2,1.74,3.19,3.7,3.76a12.36,12.36,0,0,0,7.38,0c1.86-.54,3.7-1.62,3.7-3.76V23.85H15.3v-.94H26.38c2.15,0,2.95-1.5,3.7-3.75a12.68,12.68,0,0,0,0-7.51c-.53-2.14-1.55-3.75-3.7-3.75ZM19.46,25.73a1.41,1.41,0,1,1-1.39,1.4A1.39,1.39,0,0,1,19.46,25.73Z"/><ellipse id="path1894" class="cls-3" cx="15.39" cy="35.21" rx="9.91" ry="1.92"/></g></g></svg>