<svg xmlns="http://www.w3.org/2000/svg" viewBox="0 0 31.74 35.72"><defs><style>.cls-1{fill:#00599c;}.cls-2{fill:#004482;}.cls-3{fill:#659ad2;}.cls-4{fill:#fff;}</style></defs><g id="Layer_2" data-name="Layer 2"><g id="Layer_1-2" data-name="Layer 1"><path class="cls-1" d="M31.34,26.79a2.8,2.8,0,0,0,.4-1.35V10.28a2.8,2.8,0,0,0-.4-1.35L15.87,17.86Z"/><path class="cls-2" d="M17.25,35.39l13.12-7.57a2.84,2.84,0,0,0,1-1L15.87,17.86.4,26.79a2.92,2.92,0,0,0,1,1L14.5,35.39A3,3,0,0,0,17.25,35.39Z"/><path class="cls-3" d="M31.34,8.93a2.84,2.84,0,0,0-1-1L17.25.33a3,3,0,0,0-2.75,0L1.37,7.9A3.07,3.07,0,0,0,0,10.28V25.44a2.8,2.8,0,0,0,.4,1.35l15.47-8.93Z"/><path class="cls-4" d="M15.87,28.44A10.58,10.58,0,1,1,25,12.57l-4.57,2.65a5.29,5.29,0,1,0,0,5.28L25,23.15A10.58,10.58,0,0,1,15.87,28.44Z"/><polygon class="cls-4" points="26.45 17.27 25.28 17.27 25.28 16.1 24.1 16.1 24.1 17.27 22.93 17.27 22.93 18.45 24.1 18.45 24.1 19.62 25.28 19.62 25.28 18.45 26.45 18.45 26.45 17.27"/><polygon class="cls-4" points="30.86 17.27 29.68 17.27 29.68 16.1 28.51 16.1 28.51 17.27 27.33 17.27 27.33 18.45 28.51 18.45 28.51 19.62 29.68 19.62 29.68 18.45 30.86 18.45 30.86 17.27"/></g></g></svg>