<svg xmlns="http://www.w3.org/2000/svg" xmlns:xlink="http://www.w3.org/1999/xlink" viewBox="0 0 59.5 33.47"><defs><style>.cls-1{fill:none;}.cls-2{clip-path:url(#clip-path);}.cls-3{fill:url(#radial-gradient);}.cls-4{clip-path:url(#clip-path-2);}.cls-5{fill:#777bb3;}.cls-6{fill:#fff;}</style><clipPath id="clip-path"><path class="cls-1" d="M1.19,16.74c0,8.29,12.79,15,28.56,15h0c15.78,0,28.56-6.73,28.56-15h0c0-8.3-12.78-15-28.56-15h0C14,1.71,1.19,8.44,1.19,16.74"/></clipPath><radialGradient id="radial-gradient" cx="-411.13" cy="-332.5" r="0.08" gradientTransform="matrix(453.82, 0, 0, -453.82, 186596.83, -150890.86)" gradientUnits="userSpaceOnUse"><stop offset="0" stop-color="#aeb2d5"/><stop offset="0.3" stop-color="#aeb2d5"/><stop offset="0.75" stop-color="#484c89"/><stop offset="1" stop-color="#484c89"/></radialGradient><clipPath id="clip-path-2"><rect class="cls-1" width="59.5" height="33.47"/></clipPath></defs><g id="Layer_2" data-name="Layer 2"><g id="Layer_1-2" data-name="Layer 1"><g id="g3438"><g id="g3440"><g class="cls-2"><g id="g3442"><g id="g3448"><g id="g3450"><path id="path3462" class="cls-3" d="M1.19,16.74c0,8.29,12.79,15,28.56,15h0c15.78,0,28.56-6.73,28.56-15h0c0-8.3-12.78-15-28.56-15h0C14,1.71,1.19,8.44,1.19,16.74"/></g></g></g></g></g><g id="g3464"><g class="cls-4"><g id="g3466"><g id="g3472"><path id="path3474" class="cls-5" d="M29.75,30.64c15.16,0,27.45-6.22,27.45-13.9S44.91,2.83,29.75,2.83,2.31,9.05,2.31,16.74s12.28,13.9,27.44,13.9"/></g></g></g></g><g id="g3476"><g class="cls-4"><g id="g3478"><g id="g3484"><path id="path3486" d="M16.71,18.46a4.57,4.57,0,0,0,2.76-.68,3.68,3.68,0,0,0,1.2-2.31,2.48,2.48,0,0,0-.22-2.1,3.16,3.16,0,0,0-2.27-.59h-2l-1.1,5.68Zm-6.52,7a.32.32,0,0,1-.24-.11.35.35,0,0,1-.06-.26L12.82,10a.3.3,0,0,1,.3-.25h6.31a5.55,5.55,0,0,1,4.38,1.6,5,5,0,0,1,.86,4.44,7.2,7.2,0,0,1-.76,2.1,7.05,7.05,0,0,1-1.4,1.75,6,6,0,0,1-2.29,1.38,10.4,10.4,0,0,1-3.16.41H14.51l-.73,3.75a.32.32,0,0,1-.31.25Z"/></g><g id="g3488"><path id="path3490" class="cls-6" d="M16.45,13.09h1.73c1.39,0,1.87.3,2,.48a2.28,2.28,0,0,1,.14,1.84,3.32,3.32,0,0,1-1.08,2.12,4.26,4.26,0,0,1-2.57.62H15.46Zm3-3.62H13.12a.62.62,0,0,0-.61.5L9.58,25a.66.66,0,0,0,.13.51.62.62,0,0,0,.48.23h3.28a.62.62,0,0,0,.61-.5l.68-3.5h2.3a10.66,10.66,0,0,0,3.25-.43,6.3,6.3,0,0,0,2.41-1.44,7.08,7.08,0,0,0,2.25-4,5.29,5.29,0,0,0-.92-4.7,5.86,5.86,0,0,0-4.62-1.71m-4.72,9.3h2A4.78,4.78,0,0,0,19.66,18,3.93,3.93,0,0,0,21,15.53a2.75,2.75,0,0,0-.29-2.37,3.38,3.38,0,0,0-2.5-.69H15.94l-1.23,6.3m4.72-8.68a5.23,5.23,0,0,1,4.15,1.5,4.67,4.67,0,0,1,.78,4.17,6.68,6.68,0,0,1-.72,2,6.84,6.84,0,0,1-1.34,1.68,5.76,5.76,0,0,1-2.18,1.3,9.74,9.74,0,0,1-3.06.4H14.25l-.78,4H10.19l2.93-15.06h6.31"/></g><g id="g3492"><path id="path3494" d="M32.19,21.46a.33.33,0,0,1-.24-.12.32.32,0,0,1-.07-.25l1.3-6.67a1.64,1.64,0,0,0-.09-1.28c-.11-.11-.43-.31-1.4-.31H29.34L27.71,21.2a.3.3,0,0,1-.3.26H24.16a.31.31,0,0,1-.24-.12.29.29,0,0,1-.07-.25L26.78,6a.3.3,0,0,1,.3-.25h3.26a.32.32,0,0,1,.24.11.34.34,0,0,1,.06.26l-.71,3.63h2.53c1.92,0,3.22.34,4,1s1,1.85.72,3.38l-1.36,7a.32.32,0,0,1-.31.26Z"/></g><g id="g3496"><path id="path3498" class="cls-6" d="M30.34,5.47H27.08a.63.63,0,0,0-.61.5L23.55,21a.59.59,0,0,0,.13.51.63.63,0,0,0,.48.23h3.25a.62.62,0,0,0,.61-.51l1.58-8.12h2.09c1,0,1.17.21,1.18.22s.13.35,0,1L31.58,21a.59.59,0,0,0,.13.51.63.63,0,0,0,.48.23h3.3a.61.61,0,0,0,.61-.51l1.36-7c.32-1.65,0-2.88-.81-3.67s-2.19-1.12-4.19-1.12H30.31l.63-3.26a.62.62,0,0,0-.13-.52.6.6,0,0,0-.47-.22m0,.62-.78,4h2.9c1.82,0,3.08.32,3.77,1s.9,1.66.63,3.09l-1.37,7h-3.3l1.29-6.67a1.79,1.79,0,0,0-.16-1.55,2.32,2.32,0,0,0-1.63-.41h-2.6l-1.68,8.63H24.16L27.08,6.09h3.26"/></g><g id="g3500"><path id="path3502" d="M42.31,18.46a4.57,4.57,0,0,0,2.76-.68,3.68,3.68,0,0,0,1.2-2.31,2.48,2.48,0,0,0-.22-2.1,3.14,3.14,0,0,0-2.26-.59h-2l-1.1,5.68Zm-6.52,7a.32.32,0,0,1-.24-.11.35.35,0,0,1-.06-.26L38.42,10a.3.3,0,0,1,.3-.25H45a5.55,5.55,0,0,1,4.38,1.6,5,5,0,0,1,.86,4.44,7.2,7.2,0,0,1-.76,2.1,7.05,7.05,0,0,1-1.4,1.75,6,6,0,0,1-2.29,1.38,10.4,10.4,0,0,1-3.16.41H40.11l-.73,3.75a.32.32,0,0,1-.31.25Z"/></g><g id="g3504"><path id="path3506" class="cls-6" d="M42.05,13.09h1.74c1.38,0,1.86.3,2,.48A2.31,2.31,0,0,1,46,15.41a3.37,3.37,0,0,1-1.09,2.12,4.26,4.26,0,0,1-2.57.62H41.07Zm3-3.62H38.72a.62.62,0,0,0-.61.5L35.19,25a.59.59,0,0,0,.13.51.58.58,0,0,0,.47.23h3.28a.61.61,0,0,0,.61-.5l.68-3.5h2.3a10.66,10.66,0,0,0,3.25-.43,6.34,6.34,0,0,0,2.42-1.44,7.54,7.54,0,0,0,1.45-1.82,7.4,7.4,0,0,0,.79-2.2,5.29,5.29,0,0,0-.92-4.7A5.86,5.86,0,0,0,45,9.47m-4.72,9.3h2A4.78,4.78,0,0,0,45.26,18a3.93,3.93,0,0,0,1.31-2.49,2.75,2.75,0,0,0-.29-2.37,3.37,3.37,0,0,0-2.49-.69H41.54l-1.23,6.3M45,10.09a5.23,5.23,0,0,1,4.15,1.5A4.67,4.67,0,0,1,50,15.76a6.68,6.68,0,0,1-.72,2,6.84,6.84,0,0,1-1.34,1.68,5.76,5.76,0,0,1-2.18,1.3,9.74,9.74,0,0,1-3.06.4H39.85l-.78,4H35.79l2.93-15.06H45"/></g></g></g></g></g></g></g></svg>