<svg xmlns="http://www.w3.org/2000/svg" viewBox="0 0 176.79 306.78"><defs><style>.cls-1{fill:#ed4d34;}</style></defs><g id="Layer_2" data-name="Layer 2"><g id="Layer_1-2" data-name="Layer 1"><path class="cls-1" d="M.21,0C0,10.42.2,20.83.58,31.24s1,20.8,2,31.16A298.57,298.57,0,0,0,7.06,93.26a145.8,145.8,0,0,0,3.87,15.06,66.93,66.93,0,0,0,6.14,14.14,28.11,28.11,0,0,0,4.69,6A14.37,14.37,0,0,0,28.11,132a13.2,13.2,0,0,0,7.23-.35A25.41,25.41,0,0,0,42,128.28a50.69,50.69,0,0,0,5.91-4.86c1.87-1.77,3.57-3.66,5.35-5.6,3.54-3.84,7.21-7.59,11-11.17a137.51,137.51,0,0,1,25-19.13A74.11,74.11,0,0,1,103.79,81a47.9,47.9,0,0,1,15.85-2.45,37.2,37.2,0,0,1,15.7,3.88,44.19,44.19,0,0,1,12.79,9.84c7.26,8,12.09,17.68,15.77,27.56a179.05,179.05,0,0,1,8,30.53,307,307,0,0,1,3.79,31.23,521.37,521.37,0,0,1,.35,62.75c-1,20.89-3,41.71-5.55,62.45l-5.95-.77c2.79-20.59,5-41.25,6.25-62a515.72,515.72,0,0,0,.39-62.16,302.93,302.93,0,0,0-3.36-30.83,176.77,176.77,0,0,0-7.45-30c-3.45-9.63-8-19-14.74-26.55a40.83,40.83,0,0,0-11.72-9.26,34,34,0,0,0-14.35-3.72,45.15,45.15,0,0,0-14.9,2.13,72.62,72.62,0,0,0-14,6.13,135.47,135.47,0,0,0-24.75,18.49c-3.81,3.5-7.48,7.17-11,10.94a67.41,67.41,0,0,1-11.72,10.61,27.51,27.51,0,0,1-7.24,3.54,15.09,15.09,0,0,1-8.19.29,16.12,16.12,0,0,1-7-4.11,29.27,29.27,0,0,1-4.89-6.34,68.17,68.17,0,0,1-6.11-14.52A151.74,151.74,0,0,1,5.93,93.49a300.21,300.21,0,0,1-4.09-31C1,52.08.46,41.67.2,31.25S-.08,10.41.21,0Z"/></g></g></svg>