<svg xmlns="http://www.w3.org/2000/svg" viewBox="0 0 347.08 82"><defs><style>.cls-1{fill:#ed4d34;}</style></defs><g id="Layer_2" data-name="Layer 2"><g id="Layer_1-2" data-name="Layer 1"><path class="cls-1" d="M346.79,66.35c-34.7-39.79-88.53-48.62-136.62-29.74-15.5,5.93-29.81,14.47-44,23.17C144.81,73,120.83,86.89,94.76,80.32,57.15,71.13,23,29.91,0,.23L.29,0C5.76,6.3,11.22,12.6,16.88,18.71S28.27,30.87,34.23,36.66c17.64,16.83,37.26,33.93,61.4,39.91,24.81,6.4,48.32-6.94,69-19.34,14.32-8.52,28.91-17,44.71-22.88,35.25-13.5,76.67-12.68,109.21,7.5,10.69,6.55,20.61,14.53,28.55,24.28l-.29.22Z"/></g></g></svg>